Coordinates
version=1
nRows=14
nColumns=33
inDegrees=yes

Units are S.I. units (second, meters, Newtons, ...)
Angles are in degrees.

endheader
time	ground_thorax_rot_x	ground_thorax_rot_y	ground_thorax_rot_z	ground_thorax_tx	ground_thorax_ty	ground_thorax_tz	clav_prot_r	clav_elev_r	scapula_abduction_r	scapula_elevation_r	scapula_upward_rot_r	scapula_winging_r	shoulder_elv_r	plane_of_elev_r	axial_rot_r	elbow_flexion_r	pro_sup_r	wrist_flex_r	wrist_dev_r	clav_prot_l	clav_elev_l	scapula_abduction_l	scapula_elevation_l	scapula_upward_rot_l	scapula_winging_l	shoulder_elv_l	plane_of_elev_l	axial_rot_l	elbow_flexion_l	pro_sup_l	wrist_flex_l	wrist_dev_l
      8.15000000	    -29.74667679	    -34.11856840	     43.14286192	   -109.46212528	    829.83459303	    -41.89349397	     22.47188169	    -45.00000000	     43.51753550	    -45.00000000	    -23.50331243	  -2640.73383083	  -2615.39969377	    143.35532591	   -179.99999979	   1067.75077493	   -302.78219392	     23.44435874	     17.65603762	     -3.46625865	     34.00072131	    -29.56461827	    -45.00000000	    -45.00000000	   -987.79327871	  -1888.66104558	    135.73414557	   -124.24104469	   1789.38082484	     40.35901060	     13.86204220	    -17.17013553
      8.16000000	    -30.07292167	    -33.80177174	     42.57272068	   -111.06806320	    831.76665699	    -42.14036442	     22.10945767	    -45.00000000	     43.26208211	    -45.00000000	    -23.38480659	  -2640.36866836	  -2615.08948149	    143.53073983	   -179.99999979	   1067.87010901	   -302.89151459	     23.68241644	     17.76620445	     -3.03706457	     34.04729918	    -29.78099546	    -45.00000000	    -45.00000000	   -987.90906934	  -1888.55426193	    135.84403377	   -123.95534903	   1789.33654135	     40.16416042	     13.89586595	    -17.17895184
      8.17000000	    -30.35208804	    -33.52652156	     42.03911825	   -112.61267859	    833.67696278	    -42.38970409	     22.08841855	    -45.00000000	     43.28882267	    -45.00000000	    -23.06338520	  -2640.31060618	  -2614.93581008	    143.54012151	   -179.99999979	   1067.86033339	   -302.99061112	     23.81458386	     17.77491921	     -3.02322994	     34.06627782	    -29.95131927	    -45.00000000	    -45.00000000	   -987.80816674	  -1888.48476670	    135.77671171	   -123.70046906	   1789.35400946	     39.91713071	     13.99296897	    -17.28911414
      8.18000000	    -30.60771578	    -33.24966714	     41.50047505	   -114.09309402	    835.55738673	    -42.63976455	     22.05299458	    -45.00000000	     43.30243305	    -45.00000000	    -22.73725656	  -2640.25644470	  -2614.78777914	    143.53866995	   -179.99999979	   1067.88339769	   -303.09792041	     23.95090008	     17.76174466	     -3.03307515	     34.08326346	    -30.09119310	    -45.00000000	    -45.00000000	   -987.70786086	  -1888.42487455	    135.69005386	   -123.46390951	   1789.33863449	     39.62837401	     14.10242462	    -17.38758490
      8.19000000	    -30.88168597	    -32.89641002	     40.95233340	   -115.50816492	    837.40193428	    -42.88852874	     21.88755030	    -45.00000000	     43.18549039	    -45.00000000	    -22.49906765	  -2640.10530528	  -2614.58941668	    143.63313713	   -179.99999979	   1068.02037019	   -303.22806213	     24.14287495	     17.76017014	     -2.87934962	     34.12286317	    -30.28863242	    -45.00000000	    -45.00000000	   -987.69994179	  -1888.37047435	    135.62662565	   -123.21574213	   1789.32572926	     39.31213323	     14.18907963	    -17.45409315
      8.20000000	    -31.12563777	    -32.62383856	     40.46571153	   -116.85836015	    839.20861413	    -43.13417331	     21.72014433	    -45.00000000	     43.15539823	    -45.00000000	    -22.31645035	  -2639.94972865	  -2614.46413336	    143.77351519	   -179.99999979	   1068.13293764	   -303.35633960	     24.33342213	     17.77390407	     -2.72026618	     34.16608281	    -30.44357544	    -45.00000000	    -45.00000000	   -987.66057712	  -1888.30223065	    135.64652227	   -123.00761199	   1789.34756206	     38.95069826	     14.25864471	    -17.50912463
      8.21000000	    -31.28008607	    -32.38992872	     40.02633443	   -118.14130265	    840.97511512	    -43.37427117	     21.68376511	    -45.00000000	     43.25435967	    -45.00000000	    -21.96404052	  -2639.92470214	  -2614.30259670	    143.72750962	   -179.99999979	   1068.04976512	   -303.46015087	     24.43889067	     17.80477437	     -2.72411070	     34.17801727	    -30.52156775	    -45.00000000	    -45.00000000	   -987.61995182	  -1888.25530872	    135.59906403	   -122.79461886	   1789.26050239	     38.53813347	     14.38937923	    -17.54839330
      8.22000000	    -31.51075113	    -32.08391282	     39.55939076	   -119.35061931	    842.69816247	    -43.60686814	     21.61784731	    -45.00000000	     43.20751844	    -45.00000000	    -21.64448757	  -2639.86574105	  -2614.16754632	    143.74746093	   -179.99999979	   1068.06753944	   -303.59104970	     24.58606494	     17.80707037	     -2.70180989	     34.19748132	    -30.67468225	    -45.00000000	    -45.00000000	   -987.54489906	  -1888.20373917	    135.52596492	   -122.56022412	   1789.22085182	     38.08266478	     14.52913911	    -17.60149994
      8.23000000	    -31.73747068	    -31.71704691	     39.04886445	   -120.47941641	    844.37576611	    -43.83010537	     21.41960216	    -45.00000000	     43.13580222	    -45.00000000	    -21.41778445	  -2639.72172588	  -2614.01179306	    143.87045435	   -179.99999979	   1068.18579764	   -303.75208720	     24.75566508	     17.80431462	     -2.54080358	     34.23900736	    -30.86285787	    -45.00000000	    -45.00000000	   -987.53670766	  -1888.16113294	    135.46055714	   -122.27238311	   1789.21834070	     37.61313643	     14.63312172	    -17.63086200
      8.24000000	    -31.84218363	    -31.60988506	     38.73852855	   -121.52474520	    846.01116308	    -44.04315128	     21.47030364	    -45.00000000	     43.28645879	    -45.00000000	    -21.07353438	  -2639.78605186	  -2613.95945231	    143.77969319	   -179.99999979	   1068.08156793	   -303.88803410	     24.85134348	     17.84144409	     -2.66558123	     34.23231249	    -30.86832516	    -45.00000000	    -45.00000000	   -987.42400802	  -1888.09559650	    135.43652170	   -122.05595301	   1789.15326714	     37.10887041	     14.78150755	    -17.65928231
      8.25000000	    -31.94625136	    -31.38926100	     38.43121005	   -122.48101361	    847.60014665	    -44.24371967	     21.47183514	    -45.00000000	     43.37824534	    -45.00000000	    -20.78858604	  -2639.84050544	  -2613.86934326	    143.74921364	   -179.99999979	   1068.02722599	   -304.04031764	     24.95989536	     17.86613151	     -2.75182118	     34.23430286	    -30.93776096	    -45.00000000	    -45.00000000	   -987.34936419	  -1888.03518729	    135.34370503	   -121.83915799	   1789.10366751	     36.60986123	     14.93149417	    -17.69607509
      8.26000000	    -32.26532955	    -30.91538187	     37.77290510	   -123.34761936	    849.14037685	    -44.42925447	     21.12757836	    -45.00000000	     43.10379924	    -45.00000000	    -20.81585450	  -2639.46578248	  -2613.82673801	    144.06162237	   -179.99999979	   1068.33161470	   -304.24121434	     25.20150594	     17.83247795	     -2.41172855	     34.33462411	    -31.22647120	    -45.00000000	    -45.00000000	   -987.32732877	  -1888.09569586	    135.25491681	   -121.53406552	   1789.15385731	     36.23492273	     14.99101697	    -17.76145013
      8.27000000	    -32.29130491	    -30.79773729	     37.65718261	   -124.12988780	    850.63326373	    -44.59655904	     21.17530555	    -45.00000000	     43.23833564	    -45.00000000	    -20.35587587	  -2639.64831648	  -2613.65613002	    143.88583831	   -179.99999979	   1068.05050953	   -304.32247735	     25.23941603	     17.94407248	     -2.55367328	     34.30060144	    -31.23624539	    -45.00000000	    -45.00000000	   -987.32370126	  -1887.94279233	    135.23734651	   -121.21307196	   1789.08117603	     35.89343783	     15.10226163	    -17.80460358
      8.28000000	    -32.56434417	    -30.43189989	     37.03517981	   -124.82905110	    852.06871382	    -44.74038375	     21.00724249	    -45.00000000	     43.08695479	    -45.00000000	    -20.37297409	  -2639.39944508	  -2613.71700889	    144.08631274	   -179.99999979	   1068.28944967	   -304.46476133	     25.47166170	     17.87597666	     -2.40689037	     34.38227071	    -31.42328904	    -45.00000000	    -45.00000000	   -987.20774792	  -1888.01081370	    135.07767162	   -120.92156679	   1789.15323321	     35.63177478	     15.17282182	    -17.95293358
